<svg width="36" height="34" viewBox="0 0 36 34" fill="none" xmlns="http://www.w3.org/2000/svg">
<path d="M5.23565 7.44333C8.24223 3.18981 14.5083 3.18471 17.523 7.43313L17.9934 8.09614L18.4152 7.49127C21.4046 3.21225 27.6818 3.17043 30.7268 7.40865C31.7559 8.84043 32.2598 10.5881 32.1524 12.353C32.045 14.1179 31.333 15.7904 30.1381 17.0846L18.739 29.4249C18.6443 29.5275 18.5297 29.6093 18.4023 29.6652C18.2749 29.7211 18.1374 29.75 17.9984 29.75C17.8595 29.75 17.722 29.7211 17.5946 29.6652C17.4672 29.6093 17.3526 29.5275 17.2579 29.4249L5.85073 17.0397C4.66806 15.7557 3.96102 14.0996 3.84897 12.3509C3.73691 10.6022 4.2267 8.86808 5.23565 7.44129V7.44333ZM15.8781 8.62044C13.6717 5.50935 9.08391 5.51343 6.88259 8.62758C6.14443 9.67199 5.78621 10.9412 5.86841 12.221C5.95061 13.5008 6.46818 14.7128 7.33378 15.6525L18.0005 27.2319L28.657 15.6954C29.5326 14.7472 30.0544 13.5219 30.1332 12.2288C30.212 10.9357 29.8429 9.65521 29.089 8.60616C26.8583 5.50119 22.2594 5.53281 20.0693 8.66736L18.826 10.4463C18.7329 10.5793 18.6097 10.6879 18.4665 10.763C18.3234 10.8382 18.1644 10.8777 18.003 10.8783C17.8416 10.8789 17.6824 10.8406 17.5387 10.7665C17.395 10.6924 17.271 10.5847 17.177 10.4524L15.877 8.62044H15.8781Z" fill="white"/>
</svg>
