<svg width="53" height="24" viewBox="0 0 53 24" fill="none" xmlns="http://www.w3.org/2000/svg">
<path d="M1.66 19V5H4.9V16.36H11.92V19H1.66ZM18.5913 19.16C17.4446 19.16 16.4246 18.92 15.5313 18.44C14.6513 17.96 13.9513 17.3067 13.4313 16.48C12.9246 15.64 12.6713 14.6867 12.6713 13.62C12.6713 12.54 12.9246 11.5867 13.4313 10.76C13.9513 9.92 14.6513 9.26667 15.5313 8.8C16.4246 8.32 17.4446 8.08 18.5913 8.08C19.7246 8.08 20.7379 8.32 21.6313 8.8C22.5246 9.26667 23.2246 9.91333 23.7313 10.74C24.2379 11.5667 24.4913 12.5267 24.4913 13.62C24.4913 14.6867 24.2379 15.64 23.7313 16.48C23.2246 17.3067 22.5246 17.96 21.6313 18.44C20.7379 18.92 19.7246 19.16 18.5913 19.16ZM18.5913 16.6C19.1113 16.6 19.5779 16.48 19.9913 16.24C20.4046 16 20.7313 15.66 20.9713 15.22C21.2113 14.7667 21.3313 14.2333 21.3313 13.62C21.3313 12.9933 21.2113 12.46 20.9713 12.02C20.7313 11.58 20.4046 11.24 19.9913 11C19.5779 10.76 19.1113 10.64 18.5913 10.64C18.0713 10.64 17.6046 10.76 17.1913 11C16.7779 11.24 16.4446 11.58 16.1913 12.02C15.9513 12.46 15.8313 12.9933 15.8313 13.62C15.8313 14.2333 15.9513 14.7667 16.1913 15.22C16.4446 15.66 16.7779 16 17.1913 16.24C17.6046 16.48 18.0713 16.6 18.5913 16.6ZM31.6367 23.04C30.6234 23.04 29.6434 22.9133 28.6967 22.66C27.7634 22.42 26.9834 22.0533 26.3567 21.56L27.5967 19.32C28.0501 19.6933 28.6234 19.9867 29.3167 20.2C30.0234 20.4267 30.7167 20.54 31.3967 20.54C32.5034 20.54 33.3034 20.2933 33.7967 19.8C34.3034 19.3067 34.5567 18.5733 34.5567 17.6V15.98L34.7567 13.28L34.7167 10.56V8.24H37.6767V17.2C37.6767 19.2 37.1567 20.6733 36.1167 21.62C35.0767 22.5667 33.5834 23.04 31.6367 23.04ZM31.1567 18.48C30.1567 18.48 29.2501 18.2667 28.4367 17.84C27.6367 17.4 26.9901 16.7933 26.4967 16.02C26.0167 15.2333 25.7767 14.32 25.7767 13.28C25.7767 12.2267 26.0167 11.3133 26.4967 10.54C26.9901 9.75333 27.6367 9.14667 28.4367 8.72C29.2501 8.29333 30.1567 8.08 31.1567 8.08C32.0634 8.08 32.8634 8.26667 33.5567 8.64C34.2501 9 34.7901 9.56667 35.1767 10.34C35.5634 11.1 35.7567 12.08 35.7567 13.28C35.7567 14.4667 35.5634 15.4467 35.1767 16.22C34.7901 16.98 34.2501 17.5467 33.5567 17.92C32.8634 18.2933 32.0634 18.48 31.1567 18.48ZM31.7767 15.92C32.3234 15.92 32.8101 15.8133 33.2367 15.6C33.6634 15.3733 33.9967 15.06 34.2367 14.66C34.4767 14.26 34.5967 13.8 34.5967 13.28C34.5967 12.7467 34.4767 12.2867 34.2367 11.9C33.9967 11.5 33.6634 11.1933 33.2367 10.98C32.8101 10.7533 32.3234 10.64 31.7767 10.64C31.2301 10.64 30.7434 10.7533 30.3167 10.98C29.8901 11.1933 29.5501 11.5 29.2967 11.9C29.0567 12.2867 28.9367 12.7467 28.9367 13.28C28.9367 13.8 29.0567 14.26 29.2967 14.66C29.5501 15.06 29.8901 15.3733 30.3167 15.6C30.7434 15.8133 31.2301 15.92 31.7767 15.92ZM45.7006 19.16C44.554 19.16 43.534 18.92 42.6406 18.44C41.7606 17.96 41.0606 17.3067 40.5406 16.48C40.034 15.64 39.7806 14.6867 39.7806 13.62C39.7806 12.54 40.034 11.5867 40.5406 10.76C41.0606 9.92 41.7606 9.26667 42.6406 8.8C43.534 8.32 44.554 8.08 45.7006 8.08C46.834 8.08 47.8473 8.32 48.7406 8.8C49.634 9.26667 50.334 9.91333 50.8406 10.74C51.3473 11.5667 51.6006 12.5267 51.6006 13.62C51.6006 14.6867 51.3473 15.64 50.8406 16.48C50.334 17.3067 49.634 17.96 48.7406 18.44C47.8473 18.92 46.834 19.16 45.7006 19.16ZM45.7006 16.6C46.2206 16.6 46.6873 16.48 47.1006 16.24C47.514 16 47.8406 15.66 48.0806 15.22C48.3206 14.7667 48.4406 14.2333 48.4406 13.62C48.4406 12.9933 48.3206 12.46 48.0806 12.02C47.8406 11.58 47.514 11.24 47.1006 11C46.6873 10.76 46.2206 10.64 45.7006 10.64C45.1806 10.64 44.714 10.76 44.3006 11C43.8873 11.24 43.554 11.58 43.3006 12.02C43.0606 12.46 42.9406 12.9933 42.9406 13.62C42.9406 14.2333 43.0606 14.7667 43.3006 15.22C43.554 15.66 43.8873 16 44.3006 16.24C44.714 16.48 45.1806 16.6 45.7006 16.6Z" fill="white"/>
</svg>
